<svg width="130" height="130" viewBox="0 0 130 130" fill="none" xmlns="http://www.w3.org/2000/svg">
<mask id="mask0" mask-type="alpha" maskUnits="userSpaceOnUse" x="0" y="0" width="130" height="130">
<rect width="130" height="130" fill="#C4C4C4"/>
</mask>
<g mask="url(#mask0)">
<path d="M107.721 115.25C109.05 114.5 108.972 114.241 108.711 112.793C108.268 110.362 107.747 107.879 107.851 105.422C107.955 103.043 107.929 100.716 107.356 98.4138C107.303 98.1552 107.251 97.8707 107.277 97.6121C107.382 96.9655 107.747 96.2414 107.616 95.6465C106.782 91.9483 106.704 88.0948 105.296 84.5C105.218 84.2931 105.27 84.0345 105.166 83.8276C104.905 83.2328 104.592 82.6379 104.331 82.0431C104.071 81.4224 103.784 80.7759 103.602 80.1293C103.445 79.6121 103.419 79.0431 103.393 78.5C103.341 77.2845 103.132 76.0172 103.341 74.8276C103.549 73.5862 103.393 72.5259 102.976 71.3621C102.402 69.7845 102.168 68.0776 101.777 66.4224C101.698 66.1121 101.542 65.8276 101.333 65.3879C98.5701 63.2155 95.3895 65.181 95.3895 65.181C95.4417 66.5 95.4678 67.7672 95.5981 69.0086C95.7024 70.0431 95.7545 70.9483 94.3989 71.2069C94.1903 71.2327 94.0339 71.4914 93.8514 71.6207C92.0005 73.0172 92.2872 74.9052 92.6783 76.819C92.9911 78.3448 92.6001 79.1207 91.1923 79.8707C90.5145 80.2328 89.8888 80.6724 89.1067 81.1638L85.1702 78.7328C84.0753 78.5 83.8146 77.8017 83.606 76.819C83.1628 74.5948 82.5893 72.3707 81.9115 70.1983C81.5465 69.0086 80.8687 67.9483 80.3473 66.7845L80.2169 65.1552L83.7103 59.931L97.788 51.8103C98.6222 51.681 98.9611 51.3965 99.0132 50.5172C99.0914 49.5345 99.3 48.5 99.7171 47.5948C100.551 45.9138 101.777 44.3879 101.255 42.0603C102.402 42.0603 103.263 42.0345 104.123 42.0603C105.035 42.1121 105.974 41.3362 105.583 40.7672C104.905 39.7845 104.097 38.8276 103.132 38.1552C101.959 37.3534 100.317 37.0948 99.3 36.1379C97.6315 34.6379 95.8588 35.3621 94.1382 35.4655C92.7565 35.5431 91.4009 36.0086 90.0192 36.1638C89.3935 36.2414 88.7418 36.0086 88.1161 35.9828C87.3601 35.9569 86.4998 36.2672 85.8741 35.9828C83.5017 34.8965 81.0512 34.7414 78.5485 35.1552C77.7664 35.2845 77.0104 35.4655 76.2283 35.569C75.6026 35.6724 74.8466 35.931 74.3252 35.7241C73.0217 35.2069 71.7443 35.6465 70.4669 35.6207C69.0591 35.5948 67.5731 36.0862 66.2436 35.7759C63.6105 35.1293 61.1078 34.069 58.5269 33.2155C58.1359 33.0862 57.6666 32.9828 57.3016 33.0862C55.7375 33.4741 55.4507 32.4138 55.5028 31.3793C55.555 30.1121 55.9982 28.8448 56.1285 27.5776C56.2067 26.6983 56.2328 25.7672 55.9982 24.9138C55.4768 23.1034 55.3986 21.4224 56.311 19.8448C55.8157 18.9138 55.0075 18.0345 54.8772 17.0517C54.6425 15.5776 54.3297 15.0086 52.8437 14.9828C52.7394 14.6207 52.6612 14.2586 52.5048 13.6897C51.6706 14.8793 50.7842 15.7845 51.8009 16.6379C51.3577 17.5431 50.9928 18.2672 50.706 18.8103C50.1585 18.6293 49.4286 18.5776 49.0115 18.2155C48.1772 17.4397 47.2648 18.3966 46.7173 18.0603C45.4399 17.2586 44.0843 16.3276 43.3022 15.1121L35.0641 10.9741C34.1778 10.1207 33.5 9.00862 32.5093 8.56897C30.7887 7.89655 29.1202 7.32759 28.6249 5C28.1296 6.44828 27.7125 7.56034 27.2693 8.87931C29.2767 7.92241 30.6323 8.77586 30.8408 10.9483C30.6323 11 30.3977 11.1034 30.1891 11.0776C28.7813 10.8448 28.0514 11.8793 27.8168 12.8362C27.6343 13.5603 27.3475 13.7931 26.8522 14.0776C25.5226 14.7759 24.1409 15.4483 24.558 17.3879C24.6102 17.6466 24.2713 18.0345 24.0366 18.2672C22.8374 19.431 22.5246 20.75 23.2806 22.1207C23.437 22.3793 23.9845 22.6379 24.2452 22.5603C25.5487 22.1207 26.4351 22.5603 27.2432 23.6207C27.6603 24.1897 28.3642 24.5776 28.9117 25.069C29.1202 25.25 29.5113 25.4569 29.4852 25.6121C29.2506 26.7759 30.163 27.3448 30.8408 27.8103C31.6751 28.4052 32.7179 28.7414 33.7085 29.0776C33.9692 29.1552 34.3603 28.819 34.7252 28.6897C36.2894 28.0948 36.9672 28.5345 36.9151 30.2931C36.863 31.5086 37.4626 32.1034 38.4532 32.4655C39.0007 32.6724 39.6003 32.7241 40.0956 32.8276C39.5481 33.6552 39.0007 34.4828 38.4793 35.3103C37.984 35.2069 37.1497 34.819 36.889 35.0517C36.0548 35.8276 35.3509 35.3103 34.5428 35.1552C33.9692 35.0259 33.3696 35 32.77 34.9741C32.1183 34.9224 31.4665 35.0259 30.8408 34.8965C29.9023 34.6897 29.4592 34.8707 29.4852 35.931C29.5374 37.3534 29.3027 38.75 28.4164 39.9397C28.0253 40.4569 27.5821 40.9224 27.0347 41.569C26.7218 41.3103 26.2786 40.819 25.7572 40.5603C25.2619 40.3276 24.6363 40.3534 23.9584 40.25C24.2973 42.0603 24.1409 42.4741 22.8114 43.6121C21.8207 44.4655 21.6904 46.2241 22.681 46.4052L27.2693 50.3621C28.5467 52.3017 30.4759 52.3793 32.4572 52.3534C33.5 52.3534 34.8035 54.1121 34.7513 55.1465C34.6731 56.4138 34.621 57.7586 35.012 58.9224C35.4031 60.1638 35.1424 61.9224 33.8649 62.1034C32.6397 62.2845 32.3529 62.9828 32.3008 63.8621C32.2225 65 32.2225 66.1897 32.4832 67.3017C32.6136 67.8965 33.3175 68.3879 33.8389 68.8534C34.4906 69.4483 35.1945 69.9655 36.0287 70.6638C35.8202 71.2069 35.6377 72.0862 35.1945 72.8103C34.3603 74.1552 35.0641 74.8276 36.133 75.4483C38.2447 78.319 39.3917 82.7931 39.0267 84.319C38.8964 84.8362 38.8964 85.3793 39.0267 85.8966C39.0789 86.1293 39.131 86.3879 39.105 86.5948C38.9746 87.7069 38.74 88.7414 39.5742 89.75C39.9392 90.1897 40.1738 91.0948 39.9653 91.5862C38.8703 94.069 41.4773 95.2845 41.5816 97.25C41.4512 97.7155 41.2948 98.2328 41.3209 98.7241C41.4512 100.095 41.6598 101.466 41.8684 102.836C41.9205 103.25 42.0769 103.664 42.1812 104.052L43.615 103.664C43.7975 104.724 43.98 105.914 44.1886 107.155C44.1886 107.155 57.5102 101.647 58.918 100.948C60.2997 100.25 62.2288 96.8103 64.914 97.069C67.5992 97.3276 68.7463 96.2155 70.5711 95C72.396 93.7845 79.7216 90.5259 79.7216 90.5259C79.878 90.6552 80.243 90.8103 80.2952 90.7328C81.1815 89.8276 82.1461 88.9741 82.85 87.9138C83.1107 87.5259 82.7457 86.7241 82.6414 85.8707C83.1889 84.9397 84.362 84.7069 85.6134 84.681C85.8219 84.681 86.0305 84.8879 86.213 85.069C86.4476 85.2759 86.578 85.6121 86.8126 85.7931C89.6021 87.9655 91.5312 90.6293 92.2872 94.1724C92.8347 96.7845 93.9296 99.2931 94.7378 101.879C95.0506 102.888 94.1382 104.621 94.1382 104.621L96.328 109.431C96.328 109.509 96.4323 109.767 96.3541 109.845C95.1288 111.112 95.9631 112.017 96.8494 112.948C97.0059 113.103 97.1362 113.362 97.1101 113.569C96.8494 115.871 97.7619 117.681 99.4564 119.207C99.7432 119.466 99.8214 119.957 100.004 120.319C100.838 121.897 101.646 123.448 102.481 125C102.767 124.871 102.637 124.922 102.924 124.793C101.933 122.181 100.942 119.595 99.9517 116.983C100.056 116.259 100.16 115.353 100.317 114.474C100.395 114.034 100.525 113.569 100.76 113.181C101.229 112.353 101.829 111.681 102.819 111.422L107.721 115.25Z" fill="#2D2C73"/>
</g>
</svg>
