<svg width="130" height="130" viewBox="0 0 130 130" fill="none" xmlns="http://www.w3.org/2000/svg">
<mask id="mask0" mask-type="alpha" maskUnits="userSpaceOnUse" x="0" y="0" width="130" height="130">
<rect width="130" height="130" fill="#C4C4C4"/>
</mask>
<g mask="url(#mask0)">
</g>
<path d="M65 41.6646C62.8145 42.7088 55.7983 45.9063 51.7812 45.9063H45.9062V72.9387C45.9062 76.5812 47.8612 79.9843 51.0072 81.8187L60.2647 87.2193C63.1347 88.8952 66.8638 88.8937 69.7338 87.2208L78.9913 81.8187C82.1388 79.9843 84.0938 76.5826 84.0938 72.9387V45.9063H78.2188C74.2017 45.9063 67.1855 42.7088 65 41.6646ZM65 79.6876C56.8881 79.6876 50.3125 73.112 50.3125 65.0001C50.3125 56.8882 56.8881 50.3126 65 50.3126C73.1119 50.3126 79.6875 56.8882 79.6875 65.0001C79.6875 73.112 73.1119 79.6876 65 79.6876Z" fill="#F89522"/>
<path d="M102.426 34.8634C102.035 34.4728 102.035 33.8397 102.426 33.4491L108.355 27.5196C108.746 27.1291 108.746 26.4959 108.355 26.1054L103.895 21.6446C103.504 21.2541 102.871 21.2541 102.48 21.6446L96.5509 27.5741C96.1603 27.9647 95.5272 27.9647 95.1366 27.5741L93.1446 25.5821C92.5146 24.9521 91.4375 25.3983 91.4375 26.2892V37.5625C91.4375 38.1148 91.8852 38.5625 92.4375 38.5625H103.711C104.602 38.5625 105.048 37.4854 104.418 36.8554L102.426 34.8634Z" fill="#2D2C73"/>
<path d="M27.5196 21.6446C27.1291 21.2541 26.4959 21.2541 26.1054 21.6446L21.6446 26.1054C21.2541 26.4959 21.2541 27.1291 21.6446 27.5196L27.5741 33.4491C27.9647 33.8397 27.9647 34.4728 27.5741 34.8634L25.5821 36.8554C24.9521 37.4854 25.3983 38.5625 26.2892 38.5625H37.5625C38.1148 38.5625 38.5625 38.1148 38.5625 37.5625V26.2892C38.5625 25.3983 37.4854 24.9521 36.8554 25.5821L34.8634 27.5741C34.4728 27.9647 33.8397 27.9647 33.4491 27.5741L27.5196 21.6446Z" fill="#2D2C73"/>
<path d="M27.5741 95.1366C27.9647 95.5272 27.9647 96.1603 27.5741 96.5509L21.6446 102.48C21.2541 102.871 21.2541 103.504 21.6446 103.895L26.1054 108.355C26.4959 108.746 27.1291 108.746 27.5196 108.355L33.4491 102.426C33.8397 102.035 34.4728 102.035 34.8634 102.426L36.8554 104.418C37.4854 105.048 38.5625 104.602 38.5625 103.711V92.4375C38.5625 91.8852 38.1148 91.4375 37.5625 91.4375H26.2892C25.3983 91.4375 24.9521 92.5146 25.5821 93.1446L27.5741 95.1366Z" fill="#2D2C73"/>
<path d="M104.418 93.1446C105.048 92.5146 104.602 91.4375 103.711 91.4375H92.4375C91.8852 91.4375 91.4375 91.8852 91.4375 92.4375V103.711C91.4375 104.602 92.5146 105.048 93.1446 104.418L95.1366 102.426C95.5272 102.035 96.1603 102.035 96.5509 102.426L102.48 108.355C102.871 108.746 103.504 108.746 103.895 108.355L108.355 103.895C108.746 103.504 108.746 102.871 108.355 102.48L102.426 96.5509C102.035 96.1603 102.035 95.5272 102.426 95.1366L104.418 93.1446Z" fill="#2D2C73"/>
<circle cx="64.9999" cy="64.9999" r="6.40909" fill="#F89522"/>
</svg>
