<svg width="130" height="130" viewBox="0 0 130 130" fill="none" xmlns="http://www.w3.org/2000/svg">
<mask id="mask0" mask-type="alpha" maskUnits="userSpaceOnUse" x="0" y="0" width="130" height="130">
<rect width="130" height="130" fill="#C4C4C4"/>
</mask>
<g mask="url(#mask0)">
<path d="M99.9952 68.5381H92.4028C93.1697 70.6742 93.5915 73.0045 93.5915 75.4125V104.464C93.5915 105.474 93.419 106.444 93.1122 107.338H105.67C110.368 107.338 114.164 103.473 114.164 98.735V82.8889C114.164 74.9659 107.798 68.5381 99.9952 68.5381Z" fill="#F59321"/>
<path d="M36.5722 75.4125C36.5722 73.0045 36.994 70.6742 37.7609 68.5381H30.1686C22.3653 68.5381 16 74.9659 16 82.8889V98.735C16 103.493 19.8153 107.338 24.4935 107.338H37.0515C36.7448 106.444 36.5722 105.474 36.5722 104.464V75.4125Z" fill="#F59321"/>
<path d="M73.7673 61.0618H56.4161C48.5937 61.0618 42.2476 67.509 42.2476 75.4126V104.464C42.2476 106.056 43.513 107.338 45.0851 107.338H85.1175C86.6897 107.338 87.955 106.056 87.955 104.464V75.4126C87.9359 67.4895 81.5706 61.0618 73.7673 61.0618Z" fill="#2D2C73"/>
<path d="M65.0815 23C55.687 23 48.0371 30.7483 48.0371 40.2637C48.0371 46.7109 51.5457 52.3619 56.7415 55.3137C59.2147 56.7118 62.0523 57.5275 65.0624 57.5275C68.0725 57.5275 70.9292 56.7313 73.3833 55.3137C78.5791 52.3619 82.0876 46.7109 82.0876 40.2637C82.126 30.7483 74.4761 23 65.0815 23Z" fill="#2D2C73"/>
<path d="M35.1536 39.0791C28.1172 39.0791 22.4038 44.866 22.4038 51.9929C22.4038 59.1198 28.1172 64.9067 35.1536 64.9067C36.9366 64.9067 38.643 64.5378 40.1768 63.8581C42.8418 62.6929 45.0467 60.6345 46.4079 58.0517C47.3665 56.2457 47.9034 54.1873 47.9034 51.9929C47.9034 44.8855 42.1899 39.0791 35.1536 39.0791Z" fill="#F59321"/>
<path d="M95.01 39.0791C87.9737 39.0791 82.2603 44.866 82.2603 51.9929C82.2603 54.1873 82.7971 56.2457 83.7557 58.0517C85.117 60.6345 87.3218 62.6929 89.9868 63.8581C91.5206 64.5378 93.227 64.9067 95.01 64.9067C102.046 64.9067 107.76 59.1198 107.76 51.9929C107.76 44.866 102.027 39.0791 95.01 39.0791Z" fill="#F59321"/>
</g>
</svg>
