<svg width="130" height="130" viewBox="0 0 130 130" fill="none" xmlns="http://www.w3.org/2000/svg">
<mask id="mask0" mask-type="alpha" maskUnits="userSpaceOnUse" x="0" y="0" width="130" height="130">
<rect width="130" height="130" fill="#C4C4C4"/>
</mask>
<g mask="url(#mask0)">
<path d="M66.5198 60.0618H49.1686C41.3461 60.0618 35 66.509 35 74.4126V103.464C35 105.056 36.2654 106.338 37.8375 106.338H77.8699C79.4421 106.338 80.7075 105.056 80.7075 103.464V74.4126C80.6883 66.4895 74.323 60.0618 66.5198 60.0618Z" fill="#2D2C73"/>
<path d="M58.0444 22C48.6499 22 41 29.7483 41 39.2637C41 45.7109 44.5086 51.3619 49.7044 54.3137C52.1776 55.7118 55.0152 56.5275 58.0253 56.5275C61.0354 56.5275 63.8921 55.7313 66.3462 54.3137C71.5419 51.3619 75.0505 45.7109 75.0505 39.2637C75.0889 29.7483 67.439 22 58.0444 22Z" fill="#2D2C73"/>
<path d="M72.5455 84.4545C68.9305 84.4545 66 87.385 66 91C66 94.615 68.9305 97.5455 72.5455 97.5455H78.4362V103.936C78.4362 107.837 81.5988 111 85.5 111C89.4012 111 92.5638 107.837 92.5638 103.936V97.5455H98.4545C102.069 97.5455 105 94.615 105 91C105 87.385 102.069 84.4545 98.4545 84.4545H92.5638V78.0638C92.5638 74.1626 89.4012 71 85.5 71C81.5988 71 78.4362 74.1626 78.4362 78.0638V84.4545H72.5455Z" fill="#F89522" stroke="#ECF6FF" stroke-width="4"/>
</g>
</svg>
